<?xml version="1.0" encoding="utf-8"?>
<!-- Generator: Adobe Illustrator 16.0.0, SVG Export Plug-In . SVG Version: 6.00 Build 0)  -->
<!DOCTYPE svg PUBLIC "-//W3C//DTD SVG 1.1//EN" "http://www.w3.org/Graphics/SVG/1.1/DTD/svg11.dtd">
<svg version="1.1" id="Layer_1" xmlns="http://www.w3.org/2000/svg" xmlns:xlink="http://www.w3.org/1999/xlink" x="0px" y="0px"
	 width="504px" height="552px" viewBox="0 0 504 552" enable-background="new 0 0 504 552" xml:space="preserve">
<g>
	<g>
		<g>
			<defs>
				<rect id="SVGID_1_" x="139.786" y="-45.164" width="238.377" height="238.373"/>
			</defs>
			<clipPath id="SVGID_2_">
				<use xlink:href="#SVGID_1_"  overflow="visible"/>
			</clipPath>
			
				<path opacity="0.8" clip-path="url(#SVGID_2_)" fill="none" stroke="#E8E6E5" stroke-width="3" stroke-miterlimit="10" enable-background="new    " d="
				M351.578,101.385v-1.493c0-1.22,0-2.21-0.484-3.169c-0.493-2.703-1.223-5.659-2.463-8.83
				c-4.654-10.553-16.416-17.417-25.493-18.65c-2.21-16.422-15.195-29.168-31.142-29.168h-0.492c-1.705,0-3.666,0.495-5.637,0.741
				c-4.41-6.879-16.176-21.594-34.569-25.751c-3.913-0.991-8.096-1.478-12.257-1.478c-25.02,0-46.105,17.161-52.482,42.659v0.252
				h-0.244c-15.445,5.642-25.252,20.105-25.742,37.766v0.247c0,22.06,16.425,39.944,36.784,39.944h38.98h2.439h0.758h0.242h2.446
				h0.484h76.755c17.656,0,31.87-14.693,31.87-32.846C351.816,101.609,351.578,101.609,351.578,101.385"/>
		</g>
	</g>
</g>
<polyline opacity="0.5" fill="none" stroke="#E8E6E5" stroke-width="2" stroke-linecap="round" stroke-miterlimit="10" stroke-dasharray="7,5" enable-background="new    " points="
	256.975,344.4 256.975,347.4 256.975,389.043 "/>
<path fill="none" stroke="#F5AB3F" stroke-width="3" stroke-miterlimit="10" d="M258.896,238.259c0,17.904,0,36.205,0,54.108"/>
<circle fill="#F5AB3F" cx="258.896" cy="238.259" r="5.596"/>
<g>
	<circle opacity="0.6" fill="#EAEAE8" enable-background="new    " cx="238.452" cy="307.741" r="4.897"/>
	<circle opacity="0.6" fill="#EAEAE8" enable-background="new    " cx="252.532" cy="307.741" r="4.897"/>
	<circle opacity="0.6" fill="#EAEAE8" enable-background="new    " cx="266" cy="307.741" r="4.898"/>
</g>
<g>
	<path opacity="0.3" fill="#F5AC41" enable-background="new    " d="M293.172,236.435c0.514,7.13-2.154,14.421-7.179,19.508
		c-0.685,0.669-1.886,0.582-2.515-0.121c-0.762-0.647-0.773-1.94-0.033-2.607c4.193-4.353,6.459-10.496,6.008-16.53
		c-0.321-5.013-2.48-9.869-5.941-13.505c-0.33-0.325-0.602-0.739-0.621-1.214c-0.143-1.191,1.104-2.294,2.27-2.036
		c0.419,0.073,0.767,0.341,1.046,0.647C290.279,224.836,292.784,230.552,293.172,236.435z"/>
	<path opacity="0.8" fill="#F5AC41" enable-background="new    " d="M286.184,236.257c0.594,5.463-1.42,11.132-5.324,14.997
		c-0.688,0.603-1.816,0.529-2.437-0.144c-0.749-0.609-0.834-1.845-0.155-2.537c2.442-2.475,3.991-5.818,4.242-9.288
		c0.352-4.214-1.248-8.518-4.217-11.518c-0.73-0.69-0.648-1.979,0.133-2.601c0.633-0.673,1.789-0.728,2.459-0.083
		C283.859,228.057,285.754,232.076,286.184,236.257z"/>
	<path fill="#F5AC41" d="M279.284,237.064c0.341,3.446-0.978,7.01-3.474,9.408c-0.686,0.656-1.859,0.581-2.492-0.111
		c-0.758-0.629-0.811-1.887-0.103-2.571c1.394-1.349,2.269-3.222,2.373-5.161c0.156-2.2-0.711-4.426-2.258-5.988
		c-0.435-0.386-0.696-0.957-0.629-1.541c0.095-1.354,1.903-2.298,2.991-1.363C277.744,231.624,279.009,234.305,279.284,237.064z"/>
</g>
<g>
	<path opacity="0.3" fill="#F5AC41" enable-background="new    " d="M224.387,239.969c-0.514-7.13,2.156-14.422,7.178-19.507
		c0.686-0.669,1.886-0.582,2.516,0.121c0.761,0.646,0.773,1.94,0.033,2.607c-4.192,4.352-6.46,10.495-6.008,16.53
		c0.323,5.013,2.482,9.868,5.941,13.504c0.33,0.326,0.602,0.738,0.624,1.215c0.14,1.19-1.104,2.293-2.271,2.035
		c-0.418-0.072-0.768-0.341-1.045-0.648C227.28,251.567,224.773,245.853,224.387,239.969z"/>
	<path opacity="0.8" fill="#F5AC41" enable-background="new    " d="M231.378,240.146c-0.595-5.461,1.417-11.131,5.32-14.997
		c0.689-0.603,1.817-0.529,2.438,0.145c0.749,0.61,0.834,1.844,0.153,2.537c-2.439,2.476-3.986,5.819-4.24,9.288
		c-0.352,4.213,1.249,8.518,4.217,11.518c0.731,0.691,0.648,1.98-0.131,2.603c-0.634,0.67-1.79,0.725-2.461,0.082
		C233.697,248.349,231.804,244.327,231.378,240.146z"/>
	<path fill="#F5AC41" d="M238.274,239.339c-0.342-3.445,0.977-7.009,3.474-9.406c0.685-0.657,1.86-0.582,2.492,0.109
		c0.76,0.629,0.811,1.887,0.1,2.57c-1.388,1.351-2.265,3.224-2.373,5.162c-0.153,2.2,0.715,4.427,2.262,5.988
		c0.43,0.386,0.695,0.956,0.626,1.54c-0.093,1.356-1.903,2.3-2.99,1.363C239.817,244.779,238.549,242.1,238.274,239.339z"/>
</g>
<circle opacity="0.6" fill="none" stroke="#E8E6E5" stroke-width="2" stroke-miterlimit="10" enable-background="new    " cx="256.977" cy="336.018" r="5.685"/>
<line opacity="0.5" fill="none" stroke="#E8E6E5" stroke-width="2" stroke-linecap="round" stroke-miterlimit="10" stroke-dasharray="7,5" enable-background="new    " x1="259.146" y1="134.455" x2="258.542" y2="201.776"/>
<circle opacity="0.6" fill="none" stroke="#E8E6E5" stroke-width="2" stroke-miterlimit="10" enable-background="new    " cx="258.986" cy="208.809" r="5.686"/>
<g opacity="0.9" enable-background="new    ">
	<path fill="#F5AB3F" d="M387.825,220.08h-4.104l-1.229-5.599c-0.06-0.234-0.151-0.7-0.276-1.397
		c-0.127-0.697-0.219-1.28-0.277-1.749c-0.047,0.381-0.122,0.854-0.229,1.419c-0.105,0.566-0.209,1.086-0.313,1.561
		c-0.103,0.475-0.528,2.396-1.278,5.766h-4.104l-3.182-12.85h3.349l1.397,6.442c0.315,1.424,0.533,2.558,0.649,3.401
		c0.076-0.598,0.214-1.409,0.408-2.435c0.197-1.025,0.38-1.875,0.55-2.549l1.135-4.86h3.217l1.099,4.86
		c0.188,0.779,0.378,1.679,0.571,2.698s0.322,1.781,0.387,2.285c0.076-0.65,0.284-1.778,0.624-3.384l1.424-6.46h3.35L387.825,220.08
		z"/>
	<path fill="#F5AB3F" d="M392.378,207.643c0-0.516,0.145-0.899,0.431-1.151c0.287-0.252,0.75-0.378,1.39-0.378
		c0.639,0,1.104,0.129,1.396,0.387c0.293,0.258,0.439,0.639,0.439,1.143c0,1.008-0.612,1.512-1.837,1.512
		C392.984,209.155,392.378,208.651,392.378,207.643z M395.902,220.08h-3.438v-9.958h3.438V220.08z"/>
	<path fill="#F5AB3F" d="M401.923,220.08h-3.419v-12.85h7.594v2.786h-4.175v2.452h3.851v2.786h-3.851V220.08z"/>
	<path fill="#F5AB3F" d="M407.935,207.643c0-0.516,0.145-0.899,0.432-1.151s0.75-0.378,1.389-0.378c0.64,0,1.104,0.129,1.397,0.387
		c0.293,0.258,0.438,0.639,0.438,1.143c0,1.008-0.611,1.512-1.837,1.512C408.541,209.155,407.935,208.651,407.935,207.643z
		 M411.459,220.08h-3.437v-9.958h3.437V220.08z"/>
</g>
<g opacity="0.4" enable-background="new    ">
	<path fill="#F5AB3F" d="M302.77,258.815h4.563c1.776,0,3.097,0.264,3.958,0.792c0.861,0.528,1.294,1.35,1.294,2.464
		c0,0.734-0.188,1.36-0.563,1.879c-0.376,0.519-0.871,0.853-1.485,1.001v0.09c0.812,0.214,1.397,0.572,1.764,1.073
		c0.362,0.501,0.545,1.151,0.545,1.95c0,1.187-0.445,2.121-1.337,2.804c-0.894,0.684-2.106,1.024-3.646,1.024h-5.09L302.77,258.815
		L302.77,258.815z M306.303,263.833h1.063c0.507,0,0.899-0.104,1.178-0.313c0.277-0.209,0.416-0.519,0.416-0.93
		c0-0.733-0.556-1.1-1.664-1.1h-0.993V263.833L306.303,263.833z M306.303,266.419v2.746h1.244c1.103,0,1.653-0.465,1.653-1.396
		c0-0.435-0.146-0.769-0.441-1.001c-0.296-0.233-0.725-0.349-1.284-0.349H306.303z"/>
	<path fill="#F5AB3F" d="M318.406,271.893h-3.498v-13.919h3.498V271.893z"/>
	<path fill="#F5AB3F" d="M328.05,271.893l-0.438-1.261h-0.206c-0.293,0.465-0.7,0.822-1.221,1.069
		c-0.522,0.247-1.135,0.372-1.839,0.372c-1.115,0-1.983-0.323-2.604-0.971c-0.621-0.647-0.931-1.561-0.931-2.742v-6.602h3.498v5.537
		c0,0.662,0.094,1.163,0.281,1.503s0.497,0.51,0.926,0.51c0.602,0,1.031-0.237,1.288-0.711c0.257-0.474,0.385-1.275,0.385-2.402
		v-4.437h3.498v10.135H328.05z"/>
	<path fill="#F5AB3F" d="M337.997,272.072c-1.688,0-2.999-0.449-3.932-1.347c-0.934-0.898-1.399-2.175-1.399-3.833
		c0-1.712,0.432-3.025,1.298-3.94c0.863-0.916,2.099-1.373,3.703-1.373c1.525,0,2.705,0.398,3.537,1.194
		c0.832,0.796,1.248,1.942,1.248,3.44v1.556h-6.253c0.023,0.567,0.229,1.011,0.621,1.333c0.392,0.322,0.923,0.483,1.598,0.483
		c0.613,0,1.179-0.058,1.694-0.174c0.517-0.116,1.075-0.314,1.679-0.595v2.514c-0.55,0.281-1.116,0.474-1.7,0.582
		C339.505,272.019,338.808,272.072,337.997,272.072z M337.791,263.959c-0.41,0-0.756,0.13-1.032,0.389
		c-0.277,0.259-0.44,0.667-0.487,1.221h3.006c-0.013-0.489-0.15-0.88-0.416-1.172C338.594,264.105,338.238,263.959,337.791,263.959z
		"/>
	<path fill="#F5AB3F" d="M349.394,269.308c0.471,0,1.034-0.117,1.69-0.349v2.549c-0.473,0.203-0.921,0.348-1.347,0.434
		c-0.428,0.086-0.927,0.13-1.499,0.13c-1.175,0-2.021-0.288-2.54-0.863c-0.52-0.576-0.777-1.459-0.777-2.652v-4.178h-1.227v-1.422
		l1.558-1.1l0.902-2.129h2.29v2.031h2.486v2.621h-2.486v3.945C348.445,268.981,348.761,269.308,349.394,269.308z"/>
	<path fill="#F5AB3F" d="M362.534,266.803c0,1.658-0.445,2.951-1.337,3.878c-0.892,0.927-2.141,1.391-3.744,1.391
		c-1.537,0-2.763-0.474-3.672-1.422c-0.91-0.948-1.363-2.231-1.363-3.847c0-1.652,0.444-2.936,1.337-3.851
		c0.892-0.916,2.143-1.373,3.753-1.373c0.995,0,1.875,0.211,2.639,0.635s1.354,1.03,1.768,1.821
		C362.327,264.825,362.534,265.748,362.534,266.803z M355.969,266.803c0,0.871,0.116,1.534,0.349,1.99
		c0.233,0.456,0.623,0.685,1.172,0.685c0.542,0,0.926-0.229,1.149-0.685c0.223-0.456,0.335-1.119,0.335-1.99
		c0-0.864-0.113-1.518-0.34-1.959c-0.228-0.442-0.614-0.662-1.162-0.662c-0.537,0-0.922,0.219-1.154,0.657
		C356.085,265.278,355.969,265.932,355.969,266.803z"/>
	<path fill="#F5AB3F" d="M374.207,266.803c0,1.658-0.445,2.951-1.337,3.878c-0.892,0.927-2.14,1.391-3.743,1.391
		c-1.538,0-2.764-0.474-3.673-1.422c-0.908-0.948-1.363-2.231-1.363-3.847c0-1.652,0.445-2.936,1.337-3.851
		c0.892-0.916,2.143-1.373,3.753-1.373c0.996,0,1.875,0.211,2.639,0.635c0.766,0.424,1.354,1.03,1.769,1.821
		C374.001,264.825,374.207,265.748,374.207,266.803z M367.643,266.803c0,0.871,0.116,1.534,0.349,1.99
		c0.233,0.456,0.623,0.685,1.172,0.685c0.542,0,0.927-0.229,1.149-0.685s0.335-1.119,0.335-1.99c0-0.864-0.112-1.518-0.34-1.959
		c-0.228-0.442-0.613-0.662-1.162-0.662c-0.537,0-0.922,0.219-1.154,0.657C367.759,265.278,367.643,265.932,367.643,266.803z"/>
	<path fill="#F5AB3F" d="M381.168,269.308c0.471,0,1.033-0.117,1.689-0.349v2.549c-0.471,0.203-0.92,0.348-1.347,0.434
		c-0.426,0.086-0.926,0.13-1.498,0.13c-1.175,0-2.021-0.288-2.54-0.863c-0.521-0.576-0.778-1.459-0.778-2.652v-4.178h-1.226v-1.422
		l1.557-1.1l0.903-2.129h2.29v2.031h2.485v2.621h-2.485v3.945C380.22,268.981,380.536,269.308,381.168,269.308z"/>
	<path fill="#F5AB3F" d="M391.008,271.893v-5.528c0-1.36-0.402-2.04-1.208-2.04c-0.572,0-0.994,0.24-1.267,0.72
		c-0.271,0.479-0.406,1.278-0.406,2.393v4.455h-3.497v-13.919h3.497v1.977c0,0.895-0.049,1.915-0.144,3.06h0.161
		c0.334-0.524,0.729-0.895,1.189-1.109c0.46-0.214,0.992-0.322,1.602-0.322c1.133,0,2.014,0.326,2.644,0.979
		c0.63,0.653,0.943,1.566,0.943,2.742v6.593L391.008,271.893L391.008,271.893z"/>
</g>
<g opacity="0.6" enable-background="new    ">
	<path fill="#F5AB3F" d="M92.311,221.534H79.166v-2.816l7.305-10.375h-7.132v-3.681h12.787v2.804l-7.305,10.387h7.49V221.534z"/>
	<path fill="#F5AB3F" d="M94.365,205.203c0-0.676,0.188-1.18,0.565-1.511s0.985-0.496,1.823-0.496c0.839,0,1.45,0.169,1.835,0.508
		c0.385,0.339,0.577,0.839,0.577,1.499c0,1.325-0.804,1.985-2.412,1.985C95.161,207.188,94.365,206.528,94.365,205.203z
		 M98.992,221.534H94.48v-13.075h4.512V221.534z"/>
	<path fill="#F5AB3F" d="M114.48,208.459v2.181l-1.789,0.657c0.247,0.447,0.37,0.966,0.37,1.559c0,1.408-0.495,2.5-1.483,3.277
		c-0.989,0.777-2.463,1.165-4.425,1.165c-0.485,0-0.87-0.03-1.154-0.092c-0.108,0.201-0.162,0.389-0.162,0.566
		c0,0.223,0.181,0.395,0.542,0.514c0.362,0.12,0.835,0.179,1.419,0.179h2.17c2.931,0,4.397,1.234,4.397,3.706
		c0,1.591-0.68,2.83-2.037,3.715c-1.359,0.885-3.265,1.328-5.719,1.328c-1.854,0-3.283-0.31-4.288-0.929
		c-1.004-0.62-1.506-1.51-1.506-2.672c0-1.562,0.969-2.57,2.908-3.024c-0.4-0.169-0.749-0.442-1.044-0.819
		c-0.296-0.377-0.444-0.75-0.444-1.12c0-0.408,0.111-0.768,0.334-1.08c0.223-0.311,0.689-0.683,1.396-1.113
		c-0.677-0.3-1.21-0.77-1.599-1.408c-0.389-0.638-0.583-1.416-0.583-2.331c0-1.423,0.485-2.528,1.454-3.313
		c0.97-0.785,2.354-1.176,4.155-1.176c0.238,0,0.65,0.026,1.235,0.08c0.584,0.054,1.016,0.104,1.292,0.151L114.48,208.459
		L114.48,208.459z M104.624,223.161c0,0.369,0.2,0.668,0.6,0.895c0.4,0.228,0.935,0.341,1.604,0.341c1.092,0,1.968-0.136,2.625-0.41
		c0.659-0.272,0.987-0.625,0.987-1.056c0-0.345-0.2-0.59-0.6-0.732c-0.4-0.143-0.974-0.213-1.72-0.213h-1.766
		c-0.485,0-0.895,0.113-1.229,0.34C104.792,222.552,104.624,222.83,104.624,223.161z M106.044,212.74
		c0,1.339,0.465,2.008,1.396,2.008c0.431,0,0.764-0.165,0.998-0.497c0.235-0.33,0.353-0.826,0.353-1.488
		c0-1.354-0.45-2.031-1.351-2.031C106.509,210.732,106.044,211.401,106.044,212.74z"/>
	<path fill="#F5AB3F" d="M116.73,204.662h5.886c2.292,0,3.995,0.34,5.106,1.021c1.112,0.681,1.668,1.741,1.668,3.18
		c0,0.946-0.243,1.754-0.727,2.423c-0.485,0.669-1.124,1.101-1.916,1.292v0.116c1.046,0.277,1.804,0.738,2.273,1.385
		c0.47,0.646,0.704,1.485,0.704,2.516c0,1.531-0.575,2.736-1.726,3.618c-1.15,0.88-2.717,1.321-4.703,1.321h-6.565V204.662z
		 M121.289,211.136h1.373c0.654,0,1.16-0.135,1.518-0.404c0.357-0.27,0.536-0.669,0.536-1.2c0-0.946-0.715-1.42-2.146-1.42h-1.281
		V211.136z M121.289,214.471v3.543h1.604c1.423,0,2.135-0.6,2.135-1.8c0-0.562-0.191-0.994-0.571-1.292
		c-0.381-0.301-0.933-0.451-1.656-0.451H121.289L121.289,214.471z"/>
	<path fill="#F5AB3F" d="M138.704,221.765c-2.177,0-3.869-0.579-5.072-1.736c-1.204-1.159-1.806-2.806-1.806-4.946
		c0-2.207,0.558-3.902,1.673-5.083c1.116-1.18,2.708-1.771,4.777-1.771c1.97,0,3.492,0.513,4.564,1.54
		c1.074,1.027,1.61,2.507,1.61,4.437v2.009h-8.067c0.031,0.731,0.299,1.303,0.802,1.719c0.504,0.416,1.19,0.624,2.06,0.624
		c0.792,0,1.522-0.075,2.188-0.226c0.666-0.149,1.387-0.406,2.164-0.767v3.242c-0.708,0.363-1.439,0.612-2.193,0.751
		C140.65,221.695,139.75,221.765,138.704,221.765z M138.439,211.297c-0.532,0-0.976,0.168-1.333,0.502
		c-0.358,0.335-0.568,0.86-0.629,1.575h3.877c-0.015-0.63-0.193-1.134-0.536-1.511C139.476,211.486,139.015,211.297,138.439,211.297
		z"/>
	<path fill="#F5AB3F" d="M153.314,221.765c-2.178,0-3.868-0.579-5.073-1.736c-1.203-1.159-1.806-2.806-1.806-4.946
		c0-2.207,0.557-3.902,1.674-5.083c1.115-1.18,2.707-1.771,4.777-1.771c1.97,0,3.492,0.513,4.564,1.54
		c1.074,1.027,1.61,2.507,1.61,4.437v2.009h-8.067c0.031,0.731,0.299,1.303,0.802,1.719c0.504,0.416,1.19,0.624,2.06,0.624
		c0.792,0,1.522-0.075,2.188-0.226c0.666-0.149,1.387-0.406,2.164-0.767v3.242c-0.708,0.363-1.439,0.612-2.193,0.751
		C155.261,221.695,154.361,221.765,153.314,221.765z M153.049,211.297c-0.532,0-0.976,0.168-1.333,0.502
		c-0.358,0.335-0.568,0.86-0.63,1.575h3.877c-0.015-0.63-0.193-1.134-0.536-1.511C154.086,211.486,153.625,211.297,153.049,211.297z
		"/>
</g>
<g opacity="0.7" enable-background="new    ">
	<path fill="#F5AB3F" d="M134.26,169.699h-8.898v-1.906l4.945-7.023h-4.828v-2.492h8.656v1.898l-4.945,7.031h5.07V169.699z"/>
	<path fill="#F5AB3F" d="M134.994,166.629v-2.438h4.414v2.438H134.994z"/>
	<path fill="#F5AB3F" d="M153.314,169.699h-3.648l-1.094-4.977c-0.052-0.208-0.134-0.622-0.246-1.242
		c-0.112-0.62-0.194-1.138-0.246-1.555c-0.042,0.339-0.109,0.759-0.203,1.262c-0.094,0.503-0.187,0.965-0.277,1.387
		c-0.091,0.422-0.47,2.13-1.137,5.125h-3.648l-2.828-11.422h2.977l1.242,5.727c0.281,1.266,0.474,2.273,0.578,3.023
		c0.067-0.531,0.188-1.253,0.363-2.164c0.174-0.911,0.337-1.667,0.488-2.266l1.008-4.32h2.859l0.977,4.32
		c0.167,0.692,0.336,1.492,0.508,2.398c0.172,0.906,0.286,1.583,0.344,2.031c0.067-0.578,0.252-1.581,0.555-3.008l1.266-5.742h2.977
		L153.314,169.699z"/>
	<path fill="#F5AB3F" d="M163.197,169.699l-0.586-1.172h-0.063c-0.412,0.511-0.831,0.859-1.258,1.047
		c-0.427,0.188-0.979,0.281-1.656,0.281c-0.833,0-1.49-0.25-1.969-0.75s-0.719-1.203-0.719-2.109c0-0.942,0.328-1.645,0.984-2.105
		c0.656-0.46,1.606-0.72,2.852-0.777l1.477-0.047v-0.125c0-0.729-0.359-1.094-1.078-1.094c-0.646,0-1.466,0.219-2.461,0.656
		l-0.883-2.016c1.031-0.531,2.333-0.797,3.906-0.797c1.135,0,2.014,0.281,2.637,0.844c0.622,0.563,0.934,1.349,0.934,2.359v5.805
		H163.197L163.197,169.699z M160.932,167.699c0.37,0,0.686-0.117,0.949-0.352c0.263-0.234,0.395-0.539,0.395-0.914v-0.688
		l-0.703,0.031c-1.005,0.036-1.508,0.406-1.508,1.109C160.064,167.429,160.354,167.699,160.932,167.699z"/>
	<path fill="#F5AB3F" d="M169.713,169.699l-3.375-8.852h3.188l1.5,5.234c0.005,0.026,0.016,0.07,0.031,0.133
		c0.015,0.063,0.031,0.137,0.047,0.223s0.03,0.177,0.043,0.273c0.013,0.097,0.02,0.187,0.02,0.27h0.055
		c0-0.271,0.047-0.565,0.141-0.883l1.57-5.25h3.18l-3.375,8.852H169.713z"/>
	<path fill="#F5AB3F" d="M181.439,169.855c-1.474,0-2.618-0.392-3.434-1.176c-0.816-0.784-1.223-1.899-1.223-3.348
		c0-1.495,0.378-2.642,1.133-3.441c0.755-0.799,1.833-1.199,3.234-1.199c1.333,0,2.363,0.348,3.09,1.043
		c0.727,0.695,1.09,1.696,1.09,3.004v1.359h-5.461c0.021,0.495,0.202,0.883,0.543,1.164c0.341,0.281,0.806,0.422,1.395,0.422
		c0.536,0,1.03-0.051,1.48-0.152c0.45-0.101,0.938-0.274,1.465-0.521v2.195c-0.479,0.245-0.974,0.414-1.484,0.508
		C182.757,169.808,182.147,169.855,181.439,169.855z M181.26,162.77c-0.359,0-0.66,0.113-0.902,0.34
		c-0.242,0.227-0.384,0.582-0.426,1.066h2.625c-0.011-0.427-0.132-0.769-0.363-1.023C181.963,162.899,181.65,162.77,181.26,162.77z"
		/>
</g>
<g opacity="0.9" enable-background="new    ">
	<path fill="#F5AB3F" d="M105.337,275.375v-12.352h3.337v9.657h4.757v2.695H105.337L105.337,275.375z"/>
	<path fill="#F5AB3F" d="M124.356,270.568c0,1.566-0.421,2.787-1.263,3.663c-0.842,0.876-2.021,1.313-3.536,1.313
		c-1.454,0-2.609-0.448-3.468-1.343c-0.859-0.896-1.289-2.106-1.289-3.633c0-1.561,0.421-2.772,1.263-3.637
		c0.842-0.865,2.023-1.297,3.544-1.297c0.94,0,1.771,0.2,2.492,0.6c0.721,0.399,1.277,0.973,1.668,1.719
		C124.16,268.7,124.356,269.571,124.356,270.568z M118.154,270.568c0,0.822,0.11,1.449,0.33,1.88
		c0.22,0.431,0.589,0.646,1.106,0.646c0.513,0,0.875-0.215,1.086-0.646c0.211-0.431,0.317-1.058,0.317-1.88
		c0-0.817-0.107-1.434-0.321-1.851c-0.214-0.417-0.58-0.625-1.099-0.625c-0.507,0-0.87,0.207-1.09,0.621
		C118.263,269.127,118.154,269.746,118.154,270.568z"/>
	<path fill="#F5AB3F" d="M129.771,270.881v4.495h-3.337v-12.352h4.047c3.357,0,5.036,1.217,5.036,3.65
		c0,1.431-0.699,2.537-2.096,3.32l3.6,5.382h-3.786l-2.619-4.495H129.771z M129.771,268.372h0.625c1.166,0,1.749-0.516,1.749-1.546
		c0-0.851-0.572-1.276-1.715-1.276h-0.659V268.372z"/>
	<path fill="#F5AB3F" d="M144.194,275.375l-0.634-1.267h-0.068c-0.445,0.552-0.898,0.929-1.36,1.132
		c-0.461,0.203-1.059,0.304-1.791,0.304c-0.901,0-1.611-0.271-2.129-0.811c-0.519-0.541-0.778-1.302-0.778-2.282
		c0-1.019,0.355-1.778,1.065-2.276c0.709-0.499,1.738-0.779,3.083-0.841l1.597-0.05v-0.136c0-0.788-0.389-1.183-1.166-1.183
		c-0.699,0-1.586,0.237-2.661,0.709l-0.955-2.179c1.115-0.575,2.523-0.862,4.224-0.862c1.228,0,2.179,0.304,2.852,0.912
		c0.673,0.609,1.01,1.459,1.01,2.552v6.277L144.194,275.375L144.194,275.375z M141.744,273.213c0.4,0,0.742-0.127,1.027-0.38
		c0.284-0.254,0.426-0.583,0.426-0.989V271.1l-0.76,0.034c-1.087,0.04-1.63,0.439-1.63,1.2
		C140.806,272.92,141.119,273.213,141.744,273.213z"/>
	<path fill="#F5AB3F" d="M162.267,275.375h-3.946l-1.183-5.382c-0.056-0.225-0.146-0.673-0.267-1.343s-0.209-1.23-0.266-1.681
		c-0.045,0.366-0.118,0.821-0.22,1.365c-0.101,0.543-0.201,1.043-0.3,1.5c-0.099,0.456-0.508,2.304-1.229,5.542h-3.945
		l-3.059-12.352h3.219l1.343,6.193c0.305,1.369,0.513,2.459,0.625,3.27c0.073-0.574,0.204-1.354,0.393-2.34s0.365-1.802,0.528-2.451
		l1.09-4.672h3.092l1.056,4.672c0.18,0.75,0.364,1.614,0.549,2.594c0.186,0.98,0.31,1.712,0.372,2.196
		c0.073-0.625,0.273-1.709,0.6-3.252l1.368-6.21h3.219L162.267,275.375z"/>
	<path fill="#F5AB3F" d="M174.483,275.375l-0.608-2.315h-4.013l-0.625,2.315h-3.667l4.031-12.403h4.452l4.081,12.403H174.483z
		 M173.182,270.323l-0.532-2.028c-0.124-0.451-0.274-1.034-0.452-1.749c-0.177-0.715-0.294-1.228-0.351-1.538
		c-0.051,0.287-0.15,0.76-0.3,1.419c-0.15,0.659-0.48,1.958-0.993,3.895h2.628V270.323z"/>
	<path fill="#F5AB3F" d="M191.229,275.375h-4.376l-4.512-8.702h-0.076c0.106,1.369,0.16,2.414,0.16,3.134v5.568h-2.957v-12.352
		h4.359l4.495,8.584h0.05c-0.079-1.245-0.118-2.245-0.118-2.999v-5.585h2.974L191.229,275.375L191.229,275.375z"/>
</g>
<g opacity="0.4" enable-background="new    ">
	<path fill="#F5AB3F" d="M307.091,167.536c0-1.63,0.232-2.95,0.698-3.959c0.468-1.01,1.154-1.754,2.063-2.234
		c0.909-0.48,2.029-0.719,3.36-0.719c0.475,0,1.027,0.045,1.662,0.136v2.469c-0.532-0.102-1.11-0.152-1.734-0.152
		c-1.055,0-1.841,0.232-2.356,0.695c-0.517,0.463-0.8,1.22-0.848,2.27h0.097c0.479-0.905,1.249-1.358,2.31-1.358
		c1.039,0,1.845,0.334,2.417,1.003c0.573,0.667,0.859,1.599,0.859,2.792c0,1.284-0.362,2.297-1.087,3.042
		c-0.726,0.742-1.736,1.114-3.036,1.114c-1.381,0-2.458-0.447-3.236-1.342C307.479,170.397,307.091,169.144,307.091,167.536z
		 M311.422,170.133c0.336,0,0.608-0.127,0.819-0.38c0.21-0.252,0.314-0.656,0.314-1.21c0-0.949-0.367-1.422-1.103-1.422
		c-0.363,0-0.656,0.122-0.884,0.368c-0.227,0.246-0.34,0.543-0.34,0.895c0,0.511,0.108,0.932,0.327,1.258
		C310.778,169.97,311.065,170.133,311.422,170.133z"/>
	<path fill="#F5AB3F" d="M317.383,172.474v-11.683h3.157v9.133h4.499v2.549L317.383,172.474L317.383,172.474z"/>
	<path fill="#F5AB3F" d="M335.371,167.927c0,1.48-0.398,2.636-1.195,3.465c-0.796,0.828-1.911,1.242-3.344,1.242
		c-1.374,0-2.468-0.423-3.279-1.271c-0.813-0.847-1.22-1.992-1.22-3.436c0-1.476,0.398-2.622,1.194-3.439
		c0.797-0.818,1.914-1.227,3.353-1.227c0.89,0,1.675,0.189,2.357,0.567s1.208,0.92,1.578,1.626S335.371,166.985,335.371,167.927z
		 M329.506,167.927c0,0.777,0.104,1.371,0.313,1.777c0.208,0.409,0.557,0.612,1.047,0.612c0.484,0,0.827-0.203,1.025-0.612
		c0.2-0.406,0.3-1,0.3-1.777c0-0.773-0.102-1.356-0.304-1.75s-0.549-0.591-1.039-0.591c-0.479,0-0.821,0.196-1.029,0.587
		C329.609,166.566,329.506,167.15,329.506,167.927z"/>
	<path fill="#F5AB3F" d="M349.954,172.474h-3.731l-1.119-5.09c-0.053-0.213-0.137-0.637-0.252-1.271
		c-0.113-0.633-0.197-1.165-0.251-1.59c-0.043,0.346-0.111,0.776-0.208,1.291c-0.096,0.514-0.189,0.986-0.282,1.418
		c-0.095,0.432-0.481,2.179-1.163,5.242h-3.731l-2.893-11.683h3.044l1.271,5.857c0.288,1.294,0.484,2.325,0.592,3.092
		c0.068-0.543,0.192-1.281,0.372-2.213c0.179-0.933,0.346-1.705,0.499-2.317l1.03-4.419h2.925l0.999,4.419
		c0.17,0.709,0.345,1.526,0.521,2.453c0.176,0.927,0.292,1.62,0.352,2.078c0.068-0.591,0.258-1.617,0.567-3.077l1.295-5.873h3.044
		L349.954,172.474z"/>
	<path fill="#F5AB3F" d="M362.82,164.508c0,1.305-0.386,2.314-1.155,3.024c-0.771,0.712-1.863,1.067-3.28,1.067h-0.887v3.875h-3.156
		v-11.683h4.043c1.478,0,2.584,0.322,3.324,0.967C362.45,162.404,362.82,163.319,362.82,164.508z M357.498,166.026h0.575
		c0.475,0,0.852-0.134,1.13-0.399c0.281-0.266,0.421-0.634,0.421-1.103c0-0.789-0.438-1.183-1.312-1.183h-0.814V166.026z"/>
	<path fill="#F5AB3F" d="M371.85,172.474l-0.575-2.189h-3.796l-0.591,2.189h-3.469l3.813-11.731h4.212l3.858,11.731H371.85z
		 M370.619,167.696l-0.503-1.917c-0.118-0.426-0.262-0.978-0.429-1.654c-0.169-0.677-0.277-1.161-0.332-1.454
		c-0.048,0.271-0.143,0.719-0.283,1.342c-0.142,0.623-0.453,1.852-0.938,3.684L370.619,167.696L370.619,167.696z"/>
	<path fill="#F5AB3F" d="M387.688,172.474h-4.14l-4.268-8.23h-0.071c0.102,1.294,0.151,2.283,0.151,2.964v5.266h-2.798v-11.683
		h4.123l4.252,8.119h0.049c-0.074-1.177-0.112-2.124-0.112-2.837v-5.282h2.813L387.688,172.474L387.688,172.474z"/>
</g>
<path opacity="0.8" fill="#E9E7E6" enable-background="new    " d="M53.572,444.607l1.36,36.335h-0.385
	c0.009,0.036,0.021,0.07,0.026,0.106h2.139l-1.366-36.475c0-1.442-1.254-2.614-2.795-2.614h-4.232c-1.542,0-2.794,1.172-2.794,2.581
	l-1.319,36.513c0.016-0.001,0.028-0.005,0.044-0.005h1.221c0.224-0.021,0.447-0.023,0.663-0.001c0.007-0.037,0.014-0.074,0.02-0.105
	h-0.168l1.313-36.367c0-0.472,0.448-0.841,1.021-0.841h4.232C53.124,443.733,53.571,444.104,53.572,444.607z"/>
<path opacity="0.8" fill="#E9E8E7" enable-background="new    " d="M50.796,441.037L50.796,441.037
	c-0.862,0-1.683-0.278-2.374-0.805c-0.871-0.724-1.383-1.936-1.337-3.112c0.027-0.684,0.243-1.271,0.62-1.704
	c0.033-0.583,0.215-1.563,1.005-2.3c0.424-0.425,1.006-0.741,1.642-0.901c0.104-1.325,0.912-2.643,2.222-3.536
	c1.633-1.048,3.688-1.088,5.065-0.173c0.923-0.316,1.907-0.298,2.7,0.043c0.732-0.7,1.736-1.101,2.821-1.101
	c1.079,0,2.093,0.383,2.828,1.048c0.538-0.147,0.993-0.215,1.646-0.104c1.531-1.113,3.752-1.099,5.181-0.188
	c0.405-0.157,0.876-0.279,1.434-0.279c0.628,0,1.266,0.153,1.83,0.437c0.326-0.052,0.726-0.099,1.141-0.099
	c0.898,0,1.677,0.223,2.313,0.658c1.932,1.39,2.019,3.846,1.347,5.019c-0.358,0.659-0.939,1.185-1.607,1.464
	c-0.563,1.396-2.117,2.303-3.173,2.444c-0.41,0.05-0.944,0.012-1.381-0.049c-0.577,0.497-1.175,0.767-2.264,0.829
	c-0.003,0-0.006,0-0.008,0c-0.78,0-1.487-0.174-2.185-0.528c-0.613,0.145-1.252,0.138-1.799,0.012
	c-0.891,0.927-2.453,1.414-3.453,1.414c-1.496,0-2.817-0.572-3.646-1.523c-0.5,0.317-0.98,0.401-1.351,0.401
	c-0.647,0-1.202-0.251-1.605-0.514c-0.496,0.348-1.244,0.713-2.182,0.713c-0.411,0-0.817-0.07-1.217-0.213
	c-0.285,0.573-0.747,1.262-1.464,1.751C52.662,440.729,51.715,441.037,50.796,441.037z M51.299,433.918
	c-0.394,0-0.948,0.134-1.322,0.509c-0.507,0.475-0.453,1.29-0.452,1.298l0.05,0.525l-0.432,0.306
	c-0.136,0.098-0.225,0.334-0.237,0.637c-0.023,0.603,0.25,1.281,0.651,1.615c0.759,0.574,1.915,0.524,2.965-0.178
	c0.81-0.553,1.107-1.712,1.11-1.724l0.316-1.263l1.079,0.725c0.405,0.272,0.808,0.412,1.196,0.412c0.86,0,1.482-0.675,1.488-0.683
	l0.677-0.744l0.68,0.74c0.114,0.122,0.544,0.485,0.942,0.485c0.266,0,0.54-0.184,0.814-0.545l0.985-1.302l0.59,1.521
	c0.28,0.72,1.194,1.446,2.608,1.446c0.752,0,2.02-0.519,2.285-1.048l0.354-0.708l0.75,0.252c0.266,0.089,0.608,0.19,0.903,0.19
	c0.261,0,0.518-0.043,0.787-0.133l0.396-0.131l0.359,0.214c0.532,0.318,1.027,0.468,1.558,0.468
	c0.738-0.045,0.946-0.189,1.381-0.627l0.366-0.366l0.502,0.126c0.146,0.037,0.84,0.146,1.215,0.101
	c0.609-0.082,1.634-0.763,1.78-1.532l0.115-0.603l0.601-0.12c0.365-0.072,0.721-0.354,0.927-0.735
	c0.238-0.415,0.333-1.82-0.804-2.639c-0.315-0.216-0.734-0.326-1.265-0.326c-0.419,0-0.849,0.07-1.135,0.125l-0.349,0.063
	l-0.301-0.188c-0.346-0.217-0.778-0.34-1.187-0.34c-0.412,0-0.755,0.129-1.144,0.323l-0.556,0.276l-0.461-0.416
	c-0.413-0.372-1.093-0.602-1.775-0.602c-0.651,0-1.335,0.269-1.832,0.718l-0.36,0.327l-0.472-0.117
	c-0.337-0.085-0.5-0.094-0.555-0.094c-0.318,0-0.668,0.077-1.013,0.226l-0.658,0.28l-0.429-0.572
	c-0.382-0.511-1.085-0.828-1.833-0.828c-0.791,0-1.467,0.349-1.856,0.952l-0.562,0.873l-0.793-0.67
	c-0.477-0.403-1.308-0.427-2.045-0.059l-0.57,0.284l-0.463-0.438c-0.743-0.702-2.202-0.714-3.293-0.015
	c-0.975,0.665-1.553,1.755-1.385,2.637l0.207,1.082h-1.098V433.918z"/>
<path opacity="0.8" fill="#CFCECE" enable-background="new    " d="M97.871,513.082h-56.9v-32.163h37.354l19.546-9.805V513.082z
	 M42.792,511.26h53.256v-37.192l-17.292,8.675H42.792V511.26z"/>
<g opacity="0.4" enable-background="new    ">
	<rect x="76.281" y="499.708" fill="#E9E7E6" width="8.811" height="7.32"/>
	<path fill="#E9E8E7" d="M86.002,507.939H75.37v-9.144h10.633L86.002,507.939L86.002,507.939z M77.192,506.117h6.988v-5.498h-6.988
		V506.117z"/>
</g>
<g opacity="0.4" enable-background="new    ">
	<rect x="63.106" y="499.708" fill="#E9E7E6" width="8.811" height="7.32"/>
	<path fill="#E9E8E7" d="M72.828,507.939H62.195v-9.144h10.633V507.939z M64.018,506.117h6.988v-5.498h-6.988V506.117z"/>
</g>
<g opacity="0.4" enable-background="new    ">
	<rect x="49.848" y="499.708" fill="#E9E7E6" width="8.812" height="7.32"/>
	<path fill="#E9E8E7" d="M59.57,507.939H48.937v-9.144H59.57V507.939z M50.759,506.117h6.989v-5.498h-6.989V506.117z"/>
</g>
<g opacity="0.4" enable-background="new    ">
	<rect x="76.281" y="488.252" fill="#E9E7E6" width="8.811" height="7.321"/>
	<path fill="#E9E8E7" d="M86.002,496.484H75.37v-9.145h10.633L86.002,496.484L86.002,496.484z M77.192,494.662h6.988v-5.499h-6.988
		V494.662z"/>
</g>
<g opacity="0.4" enable-background="new    ">
	<rect x="63.106" y="488.252" fill="#E9E7E6" width="8.811" height="7.321"/>
	<path fill="#E9E8E7" d="M72.828,496.484H62.195v-9.145h10.633V496.484z M64.018,494.662h6.988v-5.499h-6.988V494.662z"/>
</g>
<g opacity="0.4" enable-background="new    ">
	<rect x="49.848" y="488.252" fill="#E9E7E6" width="8.812" height="7.321"/>
	<path fill="#E9E8E7" d="M59.57,496.484H48.937v-9.145H59.57V496.484z M50.759,494.662h6.989v-5.499h-6.989V494.662z"/>
</g>
<g>
	
		<polyline opacity="0.5" fill="none" stroke="#E8E6E5" stroke-width="2" stroke-linecap="round" stroke-miterlimit="10" stroke-dasharray="7,5" enable-background="new    " points="
		62.024,426.544 62.024,389.581 192.574,389.581 192.568,470.491 	"/>
	
		<polyline opacity="0.5" fill="none" stroke="#E8E6E5" stroke-width="2" stroke-linecap="round" stroke-miterlimit="10" stroke-dasharray="7,5" enable-background="new    " points="
		321.336,445.503 322.734,389.581 453.284,389.581 453.284,423.841 	"/>
	
		<line opacity="0.5" fill="none" stroke="#E8E6E5" stroke-width="2" stroke-linecap="round" stroke-miterlimit="10" stroke-dasharray="7,5" enable-background="new    " x1="192.185" y1="389.581" x2="322.734" y2="389.581"/>
</g>
<path opacity="0.4" fill="#E9E8E7" enable-background="new    " d="M229.48,501.195h-8.326l-4.771-3.631h-5.636v-13.239h11.801
	l6.931,12.407L229.48,501.195L229.48,501.195z M221.719,499.521h6.088v-2.354l-6.24-11.17h-9.146v9.892h4.527L221.719,499.521z"/>
<path opacity="0.4" fill="#E9E8E7" enable-background="new    " d="M167.014,522.392c-4.8,0-8.706-3.904-8.706-8.704
	c0-4.802,3.905-8.706,8.706-8.706c4.8,0,8.705,3.904,8.705,8.706C175.719,518.486,171.814,522.392,167.014,522.392z
	 M167.014,506.654c-3.878,0-7.032,3.153-7.032,7.031c0,3.877,3.154,7.031,7.032,7.031c3.877,0,7.031-3.154,7.031-7.031
	S170.891,506.654,167.014,506.654z"/>
<g opacity="0.4" enable-background="new    ">
	<circle fill="#E9E7E6" cx="167.015" cy="513.687" r="3.781"/>
	<path fill="#E9E8E7" d="M167.015,518.304c-2.546,0-4.617-2.07-4.617-4.616c0-2.547,2.071-4.617,4.617-4.617
		c2.546,0,4.618,2.07,4.618,4.617C171.632,516.232,169.561,518.304,167.015,518.304z M167.015,510.743
		c-1.623,0-2.944,1.319-2.944,2.944c0,1.621,1.321,2.942,2.944,2.942c1.624,0,2.944-1.321,2.944-2.942
		C169.958,512.063,168.638,510.743,167.015,510.743z"/>
</g>
<g opacity="0.4" enable-background="new    ">
	<circle fill="#E9E7E6" cx="218.939" cy="513.687" r="3.781"/>
	<path fill="#E9E8E7" d="M218.939,518.304c-2.546,0-4.617-2.07-4.617-4.616c0-2.547,2.071-4.617,4.617-4.617s4.618,2.07,4.618,4.617
		C223.557,516.232,221.485,518.304,218.939,518.304z M218.939,510.743c-1.623,0-2.944,1.319-2.944,2.944
		c0,1.621,1.321,2.942,2.944,2.942c1.624,0,2.944-1.321,2.944-2.942C221.883,512.063,220.563,510.743,218.939,510.743z"/>
</g>
<path opacity="0.4" fill="#E9E8E7" enable-background="new    " d="M218.939,522.392c-4.8,0-8.705-3.904-8.705-8.704
	c0-4.802,3.905-8.706,8.705-8.706s8.706,3.904,8.706,8.706C227.645,518.486,223.74,522.392,218.939,522.392z M218.939,506.654
	c-3.877,0-7.031,3.153-7.031,7.031c0,3.877,3.154,7.031,7.031,7.031s7.032-3.154,7.032-7.031S222.817,506.654,218.939,506.654z"/>
<path opacity="0.8" fill="#CFCECE" enable-background="new    " d="M423.938,473.567l-3.164-6.866l15.761-9.499l15.806,6.254
	L423.938,473.567z M423.136,467.429l1.77,3.838l22.197-7.901l-10.397-4.113L423.136,467.429z"/>
<path opacity="0.8" fill="#CFCECE" enable-background="new    " d="M448.928,515.656l2.641-52.537l3.6-0.111l1.352,52.414
	L448.928,515.656z M453.321,464.907l-2.454,48.846l3.763-0.116l-1.257-48.73L453.321,464.907z"/>
<path opacity="0.8" fill="#CFCECE" enable-background="new    " d="M448.806,454.49l0.679-30.143l7.543-0.508l3.257,18.111
	L448.806,454.49z M451.287,426.074l-0.529,23.556l7.55-8.25l-2.804-15.591L451.287,426.074z"/>
<path opacity="0.8" fill="#CFCECE" enable-background="new    " d="M479.285,479.013l-16.892-7.306l-4.097-16.496l24.734,17.236
	L479.285,479.013z M463.964,470.378l14.539,6.289l2.096-3.671l-19.331-13.472L463.964,470.378z"/>
<path opacity="0.8" fill="#CFCECE" enable-background="new    " d="M348.305,513.318H295.2V477.31h-7.076
	c-1.375,0-1.808-0.63-1.94-1.004c-0.133-0.37-0.203-1.12,0.83-1.974l34.767-29.342l0.557,0.512
	c5.789,5.33,10.931,9.695,13.312,11.685v-3.165h7.794v9.587l13.051,10.725c1.038,0.851,0.97,1.601,0.837,1.973
	c-0.135,0.375-0.565,1.005-1.94,1.005h-7.083v36.008H348.305z M296.915,511.604h49.675v-36.008h8.737l-13.603-11.176v-8.683h-4.362
	v5.082l-1.4-1.144c-0.064-0.055-6.507-5.319-14.23-12.399l-33.554,28.318h8.737V511.604z"/>
<g>
	<g opacity="0.4">
		<g>
			<g>
				<g>
					<path fill="#CFCECE" d="M280.811,455.048l-2.972-0.47c1.028-4.764,3.692-9.074,7.563-12.214
						c3.879-3.144,8.754-4.951,13.816-5.144l-0.001,2.895c-4.362,0.19-8.528,1.756-11.86,4.456
						C284.034,447.277,281.729,450.968,280.811,455.048z"/>
				</g>
			</g>
		</g>
	</g>
	<g>
		<g>
			<g>
				<g>
					<path opacity="0.4" fill="#CFCECE" enable-background="new    " d="M287.484,456.094l-2.979-0.467
						c0.768-3.242,2.614-6.171,5.27-8.322c2.646-2.146,5.965-3.408,9.434-3.602l-0.018,2.902c-2.741,0.186-5.362,1.197-7.472,2.909
						C289.619,451.222,288.132,453.533,287.484,456.094z"/>
				</g>
			</g>
		</g>
	</g>
	<g>
		<g>
			<g>
				<g>
					<path opacity="0.4" fill="#CFCECE" enable-background="new    " d="M293.945,457.115l-2.997-0.474
						c0.503-1.773,1.559-3.37,3.028-4.565c1.469-1.199,3.297-1.934,5.198-2.116l-0.004,2.914c-1.19,0.173-2.315,0.654-3.239,1.406
						C295.003,455.03,294.32,456.015,293.945,457.115z"/>
				</g>
			</g>
		</g>
	</g>
</g>
<path fill="none" stroke="#F5AB3F" stroke-width="3" stroke-miterlimit="10" d="M283.633,319.927c0,1.083-0.854,1.962-1.906,1.962
	H172.108c-1.053,0-1.905-0.879-1.905-1.962v-24.022c0-1.084,0.853-1.961,1.905-1.961h109.619c1.053,0,1.905,0.877,1.905,1.961
	L283.633,319.927L283.633,319.927z"/>
<path opacity="0.8" fill="#CFCECE" enable-background="new    " d="M146.643,470.577v42.427h11.944
	c0.005-0.071,0.004-0.141,0.018-0.213c0.088-0.487,0.178-0.974,0.266-1.461h-10.555v-39.079h50.465v39.079h-23.638
	c0.027,0.066,0.058,0.131,0.08,0.205c0.133,0.488,0.267,0.979,0.401,1.469h24.832v-42.427H146.643L146.643,470.577z"/>
<g opacity="0.4" enable-background="new    ">
	<rect x="312.288" y="477.764" fill="#E9E7E6" width="8.352" height="7.805"/>
	<path fill="#E9E8E7" d="M321.497,486.425h-10.066v-9.519h10.066V486.425z M313.146,484.709h6.637v-6.088h-6.637V484.709z"/>
</g>
<g opacity="0.4" enable-background="new    ">
	<rect x="323.438" y="477.764" fill="#E9E7E6" width="8.352" height="7.805"/>
	<path fill="#E9E8E7" d="M332.646,486.425H322.58v-9.519h10.066V486.425z M324.294,484.709h6.637v-6.088h-6.637V484.709z"/>
</g>
<g opacity="0.4" enable-background="new    ">
	<rect x="323.438" y="488.207" fill="#E9E7E6" width="8.352" height="7.803"/>
	<path fill="#E9E8E7" d="M332.646,496.867H322.58v-9.519h10.066V496.867z M324.294,495.152h6.637v-6.088h-6.637V495.152z"/>
</g>
<g opacity="0.4" enable-background="new    ">
	<rect x="312.288" y="488.207" fill="#E9E7E6" width="8.352" height="7.803"/>
	<path fill="#E9E8E7" d="M321.497,496.867h-10.066v-9.519h10.066V496.867z M313.146,495.152h6.637v-6.088h-6.637V495.152z"/>
</g>
<path opacity="0.8" fill="#CFCECE" enable-background="new    " d="M227.564,479.016h-24.219v28.815h-1.557v5.631h8.662
	c-0.077-0.464-0.088-0.89,0.037-1.369c0.03-0.117,0.085-0.206,0.13-0.304h-7.156v-2.284h1.557V480.69h21.598l9.437,15.746v15.354h-9
	c0.068,0.18,0.108,0.381,0.108,0.61v1.063h10.564v-17.487L227.564,479.016z"/>
<path fill="none" stroke="#CFCECE" stroke-width="2" stroke-miterlimit="10" d="M274.186,69.176h-50.836
	c-2.556,0-4.648-1.752-4.648-3.895v-11.68c0-2.142,2.093-3.894,4.648-3.894h50.836c2.558,0,4.646,1.752,4.646,3.894v11.681
	C278.832,67.473,276.741,69.176,274.186,69.176z"/>
<path fill="none" stroke="#CFCECE" stroke-width="2" stroke-miterlimit="10" d="M274.186,93.203h-50.836
	c-2.556,0-4.648-1.752-4.648-3.894V77.627c0-2.142,2.093-3.894,4.648-3.894h50.836c2.558,0,4.646,1.752,4.646,3.894v11.682
	C278.832,91.451,276.741,93.203,274.186,93.203z"/>
<path fill="none" stroke="#CFCECE" stroke-width="2" stroke-miterlimit="10" d="M274.186,116.982h-50.836
	c-2.556,0-4.648-1.752-4.648-3.894v-11.681c0-2.142,2.093-3.894,4.648-3.894h50.836c2.558,0,4.646,1.752,4.646,3.894v11.682
	C278.832,115.23,276.741,116.982,274.186,116.982z"/>
<rect x="253.277" y="107.199" opacity="0.6" fill="#E9E7E6" stroke="#E9E8E7" stroke-width="2" stroke-miterlimit="10" enable-background="new    " width="7.227" height="1.898"/>
<rect x="266.661" y="107.199" opacity="0.6" fill="#E9E7E6" stroke="#E9E8E7" stroke-width="2" stroke-miterlimit="10" enable-background="new    " width="7.228" height="1.898"/>
<rect x="266.643" y="102.527" opacity="0.6" fill="#E9E7E6" stroke="#E9E8E7" stroke-width="2" stroke-miterlimit="10" enable-background="new    " width="7.228" height="1.898"/>
<rect x="252.295" y="83.746" opacity="0.6" fill="#E9E7E6" stroke="#E9E8E7" stroke-width="2" stroke-miterlimit="10" enable-background="new    " width="7.227" height="1.898"/>
<rect x="265.68" y="85.746" opacity="0.6" fill="#E9E7E6" stroke="#E9E8E7" stroke-width="2" stroke-miterlimit="10" enable-background="new    " width="7.229" height="1.898"/>
<rect x="265.661" y="81.073" opacity="0.6" fill="#E9E7E6" stroke="#E9E8E7" stroke-width="2" stroke-miterlimit="10" enable-background="new    " width="7.226" height="1.899"/>
<rect x="251.697" y="58.042" opacity="0.6" fill="#E9E7E6" stroke="#E9E8E7" stroke-width="2" stroke-miterlimit="10" enable-background="new    " width="7.227" height="1.898"/>
<rect x="265.082" y="60.042" opacity="0.6" fill="#E9E7E6" stroke="#E9E8E7" stroke-width="2" stroke-miterlimit="10" enable-background="new    " width="7.227" height="1.898"/>
<rect x="265.063" y="55.37" opacity="0.6" fill="#E9E7E6" stroke="#E9E8E7" stroke-width="2" stroke-miterlimit="10" enable-background="new    " width="7.229" height="1.898"/>
<g>
	<path fill="#E9E7E6" d="M453.093,453.896c-2.068,0-3.8,1.684-3.8,3.8c0,2.067,1.684,3.8,3.8,3.8c2.067,0,3.8-1.682,3.8-3.8
		C456.893,455.628,455.209,453.896,453.093,453.896z M453.096,460.854c-1.919,0-3.474-1.413-3.474-3.16
		c0-1.745,1.555-3.16,3.474-3.16c1.916,0,3.474,1.415,3.474,3.16C456.567,459.44,455.012,460.854,453.096,460.854z"/>
	<path fill="#E9E8E7" d="M453.093,462.417c-2.604,0-4.721-2.118-4.721-4.722s2.117-4.722,4.721-4.722s4.722,2.118,4.722,4.722
		C457.813,460.299,455.695,462.417,453.093,462.417z M453.096,455.454c-1.406,0-2.552,1.005-2.552,2.239s1.146,2.239,2.552,2.239
		s2.552-1.005,2.553-2.24C455.647,456.459,454.502,455.454,453.096,455.454z"/>
</g>
</svg>
